<?xml version="1.0" encoding="UTF-8"?>
<!DOCTYPE svg PUBLIC "-//W3C//DTD SVG 1.1//EN" "http://www.w3.org/Graphics/SVG/1.1/DTD/svg11.dtd">
<!-- Creator: CorelDRAW -->
<svg xmlns="http://www.w3.org/2000/svg" xml:space="preserve" width="1.12326in" height="0.237091in" version="1.1" style="shape-rendering:geometricPrecision; text-rendering:geometricPrecision; image-rendering:optimizeQuality; fill-rule:evenodd; clip-rule:evenodd"
viewBox="0 0 76.49 16.15"
 xmlns:xlink="http://www.w3.org/1999/xlink"
 xmlns:xodm="http://www.corel.com/coreldraw/odm/2003">
 <defs>
  <style type="text/css">
   <![CDATA[
    .fil2 {fill:#901013}
    .fil3 {fill:white}
    .fil1 {fill:white;fill-rule:nonzero}
    .fil0 {fill:url(#id2)}
   ]]>
  </style>
      <mask id="id0">
  <linearGradient id="id1" gradientUnits="userSpaceOnUse" x1="48.94" y1="11.46" x2="51.76" y2="11.46">
   <stop offset="0" style="stop-opacity:0.901961; stop-color:white"/>
   <stop offset="0.278431" style="stop-opacity:0.65098; stop-color:white"/>
   <stop offset="0.670588" style="stop-opacity:0.294118; stop-color:white"/>
   <stop offset="1" style="stop-opacity:0; stop-color:white"/>
  </linearGradient>
       <rect style="fill:url(#id1)" x="48.75" y="10.68" width="3.29" height="1.59"/>
      </mask>
  <linearGradient id="id2" gradientUnits="userSpaceOnUse" x1="-0" y1="8.07" x2="16.24" y2="8.07">
   <stop offset="0" style="stop-opacity:1; stop-color:#F00006"/>
   <stop offset="1" style="stop-opacity:1; stop-color:#891114"/>
  </linearGradient>
 </defs>
 <g id="Layer_x0020_1">
  <metadata id="CorelCorpID_0Corel-Layer"/>
  <g id="_2365902342784">
   <path class="fil0" d="M16.16 0.04l-7.96 -0.04c-7.38,0.07 -10.87,8.69 -5.8,13.81 4.86,4.89 13.7,1.68 13.78,-5.67 0.03,-2.49 0.15,-5.66 -0.02,-8.09zm-3.52 7.57l0 4.83c-0.67,0.33 -1.32,0.58 -1.95,0.75 -0.63,0.17 -1.25,0.25 -1.84,0.25 -1.51,0 -2.77,-0.5 -3.76,-1.5 -1,-1 -1.5,-2.26 -1.5,-3.78 0,-1.54 0.51,-2.8 1.52,-3.81 1.01,-1 2.75,-1.66 4.3,-1.66 0.58,0 1.14,0.08 1.67,0.24 0.53,0.16 1.04,0.4 1.53,0.72l0.05 2.49c-0.46,-0.47 -1.23,-0.81 -1.68,-1.02 -0.46,-0.22 -0.94,-0.32 -1.44,-0.32 -0.89,0 -2.09,0.45 -2.67,1.05 -0.58,0.6 -0.88,1.34 -0.88,2.23 0,0.94 0.28,1.71 0.85,2.31 0.56,0.6 1.29,0.89 2.18,0.89 0.21,0 0.41,-0.02 0.62,-0.05 0.21,-0.04 0.43,-0.09 0.66,-0.16l0 -1.44 -1.88 0 0 -2.02 4.22 0z"/>
   <g>
    <path class="fil1" d="M26.41 8.88c0,0.05 0,0.09 0,0.14 0,0.07 -0,0.14 -0.01,0.21 -0.01,0.07 -0.01,0.14 -0.02,0.21 -0,0.03 -0.01,0.06 -0.01,0.09 -0,0.01 -0,0.01 -0,0.02 -0.25,1.35 -1.44,2.38 -2.86,2.38 -0.15,0 -0.29,-0.01 -0.43,-0.03 -1.4,-0.21 -2.48,-1.42 -2.48,-2.88 0,-1.6 1.3,-2.91 2.91,-2.91 1.15,0 2.14,0.67 2.62,1.64l-1.54 0c-0.29,-0.25 -0.66,-0.39 -1.07,-0.39 -0.92,0 -1.66,0.75 -1.66,1.66 0,0.92 0.74,1.66 1.66,1.66 0.73,0 1.36,-0.48 1.58,-1.14 0,0 0,-0 0,-0l-1.67 0 0 -1.08 1.66 0 1.29 0c0.03,0.14 0.04,0.27 0.05,0.42z"/>
    <path class="fil1" d="M32.41 8.16c0,-0.97 -0.69,-1.72 -1.6,-1.9 0,0 0,0 0,0 -0.14,-0.03 -0.28,-0.04 -0.43,-0.04l0 0 -1.51 0 0 0 -1.29 0 0 5.81 1.29 0 0 -1.93 0.86 0 1.53 1.93 1.46 0 -1.63 -2.05c0.77,-0.27 1.31,-0.95 1.31,-1.82zm-2.03 0.82l-1.51 0 0 -1.64 1.51 0c0.41,0 0.74,0.42 0.74,0.82 0,0.35 -0.24,0.7 -0.56,0.8l0 0c-0.05,0.02 -0.11,0.03 -0.17,0.03z"/>
    <path class="fil1" d="M38.16 6.87c-0.52,-0.47 -1.2,-0.75 -1.95,-0.75 -1.6,0 -2.91,1.3 -2.91,2.91 0,1.6 1.3,2.91 2.91,2.91 1.6,0 2.91,-1.3 2.91,-2.91 0,-0.75 -0.29,-1.43 -0.75,-1.95 -0.06,-0.07 -0.13,-0.14 -0.2,-0.2zm-3.6 2.15c0,-0.91 0.74,-1.65 1.65,-1.65 0.91,0 1.65,0.74 1.65,1.65 0,0.91 -0.74,1.65 -1.65,1.65 -0.91,0 -1.65,-0.74 -1.65,-1.65z"/>
    <polygon class="fil1" points="46.96,6.22 45.09,10.47 45.09,10.47 44.4,12.03 44.4,12.03 44.4,12.03 43.71,10.47 43.71,10.47 43.21,9.33 42.7,10.47 42.02,12.03 41.33,10.47 39.45,6.22 40.83,6.22 42.02,8.91 42.52,7.77 43.2,6.22 43.21,6.22 43.9,7.77 44.4,8.91 45.59,6.22 "/>
    <rect class="fil1" x="47.69" y="6.22" width="1.29" height="5.81"/>
    <polygon class="fil1" points="48.98,12.03 48.98,10.91 51.8,10.91 51.8,12.03 "/>
    <g>
     <polygon class="fil1" style="mask:url(#id0)" points="48.98,12.03 48.98,10.91 51.8,10.91 51.8,12.03 "/>
    </g>
    <polygon class="fil1" points="48.98,12.03 47.69,12.03 47.69,6.22 48.98,6.22 "/>
    <polygon class="fil1" points="58.53,12.04 57.07,12.04 55.35,8.93 53.62,12.04 52.07,12.04 54.57,7.54 55.3,6.22 56.07,7.62 "/>
    <polygon class="fil1" points="63.39,6.22 64.68,6.22 64.68,10.57 64.68,12.03 64.68,12.03 60.54,8.71 60.54,12.03 59.25,12.03 59.25,6.22 59.25,6.22 63.39,9.53 "/>
    <path class="fil1" d="M71.36 9.89c-0.37,1.18 -1.48,2.04 -2.77,2.04 -0.04,0 -0.08,-0 -0.12,-0 -1.55,-0.06 -2.79,-1.34 -2.79,-2.9 0,-1.6 1.3,-2.91 2.91,-2.91 1.26,0 2.34,0.81 2.74,1.93l-1.4 0c-0.3,-0.41 -0.79,-0.68 -1.34,-0.68 -0.92,0 -1.66,0.75 -1.66,1.66 0,0.92 0.75,1.66 1.66,1.66 0.6,0 1.12,-0.32 1.41,-0.79l1.36 0z"/>
    <polygon class="fil1" points="73.78,10.91 76.49,10.91 76.49,12.03 73.78,12.03 72.49,12.03 72.49,6.22 73.78,6.22 76.49,6.22 76.49,7.33 73.78,7.33 73.78,8.58 76.04,8.58 76.04,9.7 73.78,9.7 "/>
   </g>
   <g>
    <rect class="fil2" x="57.59" y="0.41" width="18.9" height="4.72" rx="1.11" ry="1.02"/>
    <g>
     <path class="fil1" d="M64.87 4.1c0.38,0 0.65,-0.26 0.65,-0.68 0,-0.35 -0.19,-0.5 -0.57,-0.78 -0.28,-0.21 -0.39,-0.31 -0.39,-0.52 0,-0.22 0.12,-0.34 0.28,-0.34 0.18,0 0.3,0.15 0.3,0.37l0 0.1c0,0.02 0.01,0.04 0.04,0.04l0.27 0c0.02,0 0.04,-0.01 0.04,-0.04l0 -0.09c0,-0.41 -0.26,-0.68 -0.65,-0.68 -0.37,0 -0.63,0.24 -0.63,0.64 0,0.4 0.26,0.59 0.54,0.8 0.26,0.19 0.41,0.3 0.41,0.52 0,0.21 -0.13,0.35 -0.3,0.35 -0.18,0 -0.3,-0.14 -0.3,-0.37l0 -0.08c0,-0.02 -0.01,-0.04 -0.04,-0.04l-0.27 0c-0.02,0 -0.04,0.01 -0.04,0.04l0 0.1c0,0.39 0.26,0.65 0.64,0.65zm2.2 -2.59l-1.31 0c-0.02,0 -0.04,0.01 -0.04,0.04l0 0.23c0,0.02 0.01,0.04 0.04,0.04l0.45 0c0.01,0 0.01,0.01 0.01,0.01l0 2.2c0,0.02 0.01,0.04 0.04,0.04l0.28 0c0.02,0 0.04,-0.01 0.04,-0.04l0 -2.2c0,-0.01 0.01,-0.01 0.01,-0.01l0.48 0c0.02,0 0.04,-0.01 0.04,-0.04l0 -0.23c0,-0.02 -0.01,-0.04 -0.04,-0.04zm1.29 2.56l0.28 0c0.03,0 0.04,-0.02 0.03,-0.04l-0.55 -2.48c-0,-0.02 -0.02,-0.03 -0.04,-0.03l-0.32 0c-0.02,0 -0.04,0.01 -0.04,0.03l-0.54 2.48c-0,0.02 0.01,0.04 0.03,0.04l0.28 0c0.02,0 0.04,-0.01 0.04,-0.03l0.08 -0.42c0,-0.01 0.01,-0.01 0.02,-0.01l0.59 0c0.01,0 0.02,0.01 0.02,0.01l0.08 0.42c0,0.02 0.02,0.03 0.04,0.03zm-0.68 -0.76l0.25 -1.25c0,-0.01 0.01,-0.01 0.01,0l0.24 1.25c0,0.01 -0,0.01 -0.01,0.01l-0.48 0c-0.01,0 -0.01,-0.01 -0.01,-0.01zm1.37 0.76l0.28 0c0.02,0 0.04,-0.01 0.04,-0.04l0 -0.82c0,-0.01 0,-0.01 0,-0.02l0.19 -0.3c0.01,-0.01 0.01,-0.01 0.02,0l0.48 1.14c0.01,0.02 0.02,0.03 0.04,0.03l0.3 0c0.03,0 0.04,-0.02 0.03,-0.04l-0.61 -1.43c-0,-0.01 -0,-0.01 0,-0.02l0.56 -1.02c0.01,-0.03 0,-0.04 -0.03,-0.04l-0.3 0c-0.02,0 -0.03,0.01 -0.04,0.03l-0.62 1.11c-0.01,0.01 -0.02,0.01 -0.02,-0l0 -1.1c0,-0.02 -0.01,-0.04 -0.04,-0.04l-0.28 0c-0.02,0 -0.04,0.01 -0.04,0.04l0 2.48c0,0.02 0.01,0.04 0.04,0.04zm1.7 0l0.28 0c0.02,0 0.04,-0.01 0.04,-0.04l0 -2.48c0,-0.02 -0.01,-0.04 -0.04,-0.04l-0.28 0c-0.02,0 -0.04,0.01 -0.04,0.04l0 2.48c0,0.02 0.01,0.04 0.04,0.04zm0.81 0l0.27 0c0.02,0 0.04,-0.01 0.04,-0.04l-0 -1.6c0,-0.01 0.01,-0.01 0.02,0l0.65 1.61c0.01,0.02 0.02,0.03 0.04,0.03l0.28 0c0.02,0 0.04,-0.01 0.04,-0.04l0 -2.48c0,-0.02 -0.01,-0.04 -0.04,-0.04l-0.27 0c-0.02,0 -0.04,0.01 -0.04,0.04l0 1.6c0,0.01 -0.01,0.02 -0.02,0l-0.65 -1.61c-0.01,-0.02 -0.02,-0.03 -0.04,-0.03l-0.28 0c-0.02,0 -0.04,0.01 -0.04,0.04l0 2.48c0,0.02 0.01,0.04 0.04,0.04zm2.4 0.03c0.39,0 0.66,-0.25 0.66,-0.64l0 -0.68c0,-0.02 -0.01,-0.04 -0.04,-0.04l-0.61 0c-0.02,0 -0.04,0.01 -0.04,0.04l0 0.23c0,0.02 0.01,0.04 0.04,0.04l0.28 0c0.01,0 0.01,0.01 0.01,0.01l0 0.4c0,0.2 -0.12,0.33 -0.31,0.33 -0.19,0 -0.31,-0.13 -0.31,-0.33l0 -1.34c0,-0.2 0.12,-0.33 0.31,-0.33 0.19,0 0.31,0.13 0.31,0.33l0 0.16c0,0.02 0.01,0.04 0.04,0.04l0.28 0c0.02,0 0.04,-0.01 0.04,-0.04l0 -0.15c0,-0.39 -0.27,-0.64 -0.66,-0.64 -0.39,0 -0.66,0.25 -0.66,0.64l0 1.34c0,0.39 0.26,0.64 0.66,0.64z"/>
     <path class="fil3" d="M60.49 3.39l0.62 0.3c0.29,0.15 0.22,0.12 0.67,-0.1 0.05,-0.02 0.4,-0.2 0.41,-0.2 0.03,0 0.4,0.21 0.46,0.22l-1.3 0.65c-0.02,0 -0.13,-0.06 -0.16,-0.08 -0.12,-0.06 -1.11,-0.56 -1.15,-0.57l0.46 -0.23zm-0.45 -0.63c0.03,-0.01 0.33,-0.16 0.4,-0.2 0.08,-0.04 0.07,-0.02 0.25,0.07l0.48 0.24c0.24,0.12 0.17,0.08 0.51,-0.08l0.16 -0.08c0.06,-0.03 0.11,-0.05 0.16,-0.08 0.23,-0.12 0.16,-0.11 0.32,-0.03 0.05,0.03 0.29,0.15 0.32,0.16l0 0.02c-0.06,0.01 -1.26,0.64 -1.3,0.64 -0.04,0 -1.24,-0.63 -1.3,-0.64l0 -0.02zm-0.56 -0.84c0,0.15 0.14,0.18 0.28,0.25l0.33 0.16c0,0 0,0 0.01,0l0.02 0.01 -0.53 0.26c-0.14,0.08 -0.15,0.24 -0.01,0.32l0.35 0.18c0.03,0.02 0.06,0.03 0.09,0.04 0.01,0.01 0.03,0.01 0.04,0.02l0.04 0.03c-0.04,0.01 -0.13,0.06 -0.18,0.08 -0.06,0.03 -0.11,0.06 -0.17,0.09 -0.06,0.03 -0.11,0.06 -0.17,0.09 -0.13,0.07 -0.14,0.2 -0.06,0.28 0.03,0.03 0.08,0.05 0.12,0.07l1.2 0.6c0.08,0.04 0.16,0.08 0.24,0.12 0.32,0.16 0.22,0.15 0.74,-0.12l0.96 -0.48c0.05,-0.02 0.32,-0.16 0.35,-0.18 0.07,-0.06 0.08,-0.15 0.02,-0.23 -0.02,-0.03 -0.04,-0.04 -0.08,-0.06 -0.06,-0.03 -0.11,-0.06 -0.17,-0.09 -0.05,-0.03 -0.32,-0.16 -0.35,-0.17l0.53 -0.27c0.13,-0.07 0.15,-0.23 0,-0.32l-0.53 -0.26 0.17 -0.09c0.06,-0.03 0.12,-0.06 0.18,-0.08 0.06,-0.03 0.12,-0.06 0.17,-0.09 0.06,-0.03 0.11,-0.07 0.11,-0.17 0,-0.04 -0.03,-0.1 -0.05,-0.12 -0.03,-0.03 -0.08,-0.05 -0.12,-0.07l-1.44 -0.72c-0.28,-0.14 -0.23,-0.14 -0.51,-0l-1.44 0.72c-0.07,0.04 -0.17,0.07 -0.17,0.19z"/>
    </g>
   </g>
  </g>
 </g>
</svg>
