<?xml version="1.0" encoding="UTF-8"?>
<!DOCTYPE svg PUBLIC "-//W3C//DTD SVG 1.1//EN" "http://www.w3.org/Graphics/SVG/1.1/DTD/svg11.dtd">
<!-- Creator: CorelDRAW -->
<svg xmlns="http://www.w3.org/2000/svg" xml:space="preserve" width="0.233335in" height="0.189579in" version="1.1" style="shape-rendering:geometricPrecision; text-rendering:geometricPrecision; image-rendering:optimizeQuality; fill-rule:evenodd; clip-rule:evenodd"
viewBox="0 0 6.89 5.59"
 xmlns:xlink="http://www.w3.org/1999/xlink"
 xmlns:xodm="http://www.corel.com/coreldraw/odm/2003">
 <defs>
  <style type="text/css">
   <![CDATA[
    .fil2 {fill:black}
    .fil0 {fill:#18A27C}
    .fil3 {fill:#F3B92F}
    .fil1 {fill:white}
   ]]>
  </style>
 </defs>
 <g id="Layer_x0020_1">
  <metadata id="CorelCorpID_0Corel-Layer"/>
  <g id="_1589254669216">
   <g>
    <path class="fil0" d="M5.04 4.49c-0.02,-0.01 -0.05,-0 -0.08,-0 -0.02,-0 -0.05,-0.01 -0.08,-0.01 -0.2,-0.03 -0.46,-0.13 -0.63,-0.24 -0.23,-0.16 -0.41,-0.34 -0.53,-0.59 -0.14,-0.28 -0.14,-0.41 -0.16,-0.46 0,0.01 -0.03,0.01 -0.04,0.01 -0.02,0 -0.04,0 -0.06,0.01l-0.35 0.02c-0.01,0.04 -0,1.26 -0,1.35l-0.64 0 -0 -1.35c-0.28,-0.02 -0.52,-0.03 -0.78,-0.09 -0.17,-0.04 -0.58,-0.13 -0.58,-0.29 -0,-0.16 0.41,-0.26 0.58,-0.29 0.26,-0.05 0.51,-0.07 0.78,-0.09l0 -0.42 -1 -0 -0 -0.64 2.65 -0 0 0.23c-0,0.02 0,0.01 -0.01,0.03 0.03,-0.02 0.08,-0.07 0.11,-0.09l0.04 -0.03c0.07,-0.05 0.21,-0.12 0.29,-0.15 0.22,-0.09 0.38,-0.1 0.61,-0.11 -0.05,-0.09 -0.17,-0.25 -0.24,-0.32 -0.27,-0.31 -0.58,-0.55 -0.98,-0.73 -0.57,-0.26 -1.27,-0.33 -1.93,-0.13 -0.62,0.18 -1.06,0.52 -1.37,0.9 -0.4,0.47 -0.6,1.01 -0.64,1.63 -0.05,0.68 0.2,1.35 0.5,1.76 0.33,0.45 0.74,0.79 1.27,1 0.96,0.38 2.06,0.18 2.83,-0.48 0.12,-0.11 0.17,-0.16 0.29,-0.28l0.1 -0.12c0.01,-0.02 0.02,-0.03 0.04,-0.04z"/>
    <path class="fil1" d="M3.57 3.17l-0.02 -0.13c-0.04,0.02 -0.4,0.04 -0.47,0.04 -0.46,0.01 -0.98,-0 -1.42,-0.1 -0.12,-0.03 -0.3,-0.08 -0.35,-0.15 -0.08,-0.11 0.18,-0.19 0.27,-0.21 0.22,-0.06 0.67,-0.12 0.9,-0.12l0 0.48 0.64 0 0 -0.48c0.08,0 0.16,0.01 0.24,0.01 0.07,0.01 0.16,0.02 0.23,0.02l0.01 -0.03c-0.01,-0.01 0.01,-0.01 -0.02,-0.01 -0.07,-0.01 -0.4,-0.03 -0.45,-0.03l0 -0.42 0.66 0 0.15 -0.2c0.03,-0.04 0.06,-0.06 0.09,-0.09l0.09 -0.09c0.01,-0.01 0.01,-0.01 0.01,-0.03l-0 -0.23 -2.65 0 0 0.64 1 0 -0 0.42c-0.27,0.02 -0.53,0.04 -0.78,0.09 -0.17,0.03 -0.58,0.13 -0.58,0.29 0,0.16 0.41,0.25 0.58,0.29 0.26,0.05 0.51,0.06 0.78,0.09l0 1.35 0.64 -0c0,-0.09 -0.01,-1.3 0,-1.35l0.35 -0.02c0.02,-0 0.04,-0 0.06,-0.01 0.02,-0 0.04,0 0.04,-0.01z"/>
    <path class="fil0" d="M3.54 3.05c0,-0.02 -0.01,-0.18 -0,-0.27l0.03 -0.24c-0.07,-0 -0.16,-0.01 -0.23,-0.02 -0.08,-0.01 -0.16,-0.01 -0.24,-0.01l-0 0.48 -0.64 -0 -0 -0.48c-0.23,-0.01 -0.67,0.06 -0.9,0.12 -0.09,0.02 -0.34,0.1 -0.27,0.21 0.05,0.08 0.24,0.13 0.35,0.15 0.44,0.09 0.96,0.11 1.42,0.1 0.08,-0 0.43,-0.01 0.47,-0.04z"/>
    <path class="fil0" d="M3.59 2.52c0.01,-0.04 0.03,-0.11 0.05,-0.16l0.01 -0.01c0,-0 0,-0.01 0,-0.01 0.01,-0.02 0.02,-0.04 0.02,-0.06l0.11 -0.22 -0.66 -0 -0 0.42c0.06,0 0.38,0.02 0.45,0.03 0.03,0.01 0.02,-0 0.02,0.01z"/>
   </g>
   <g>
    <path class="fil2" d="M5.11 1.28c-0.5,0.05 -0.81,0.21 -1.13,0.54 -0.12,0.12 -0.24,0.31 -0.32,0.51 -0.21,0.54 -0.12,1.17 0.23,1.62 0.5,0.64 1.37,0.84 2.08,0.47 0.81,-0.42 1.15,-1.42 0.72,-2.24 -0.11,-0.21 -0.2,-0.31 -0.36,-0.47 -0.24,-0.24 -0.74,-0.48 -1.22,-0.43z"/>
    <path class="fil3" d="M4.54 2.5c0.01,0.03 0.21,0.21 0.25,0.25 0.02,-0.01 0.27,-0.26 0.32,-0.32 0.03,-0.03 0.08,-0.09 0.11,-0.11l0.43 0.43c0.03,-0.03 0.24,-0.23 0.25,-0.26l-0.17 -0.17c-0.06,-0.06 -0.11,-0.11 -0.17,-0.17 -0.05,-0.05 -0.32,-0.32 -0.34,-0.34 -0.03,0.02 -0.29,0.29 -0.34,0.33 -0.06,0.06 -0.11,0.11 -0.17,0.17l-0.17 0.17z"/>
    <path class="fil3" d="M4.54 3.37c0.06,0.04 0.64,0.65 0.68,0.67 0.03,-0.01 0.29,-0.29 0.34,-0.33l0.25 -0.25c0.03,-0.03 0.06,-0.07 0.09,-0.08 -0.01,-0.03 -0.04,-0.05 -0.06,-0.07 -0.02,-0.02 -0.04,-0.04 -0.06,-0.06 -0.04,-0.04 -0.09,-0.1 -0.13,-0.12l-0.43 0.43 -0.22 -0.21c-0.04,-0.04 -0.19,-0.2 -0.22,-0.21 -0.04,0.04 -0.23,0.22 -0.25,0.25z"/>
    <path class="fil3" d="M5.83 2.94c0.03,0.03 0.09,0.09 0.12,0.12 0.03,0.03 0.1,0.11 0.13,0.12 0.04,-0.06 0.22,-0.2 0.24,-0.25 -0.03,-0.05 -0.2,-0.19 -0.24,-0.25 -0.03,0.01 -0.24,0.23 -0.26,0.25z"/>
    <polygon class="fil3" points="4.97,2.94 5.22,3.19 5.47,2.94 5.22,2.69 "/>
    <path class="fil3" d="M4.11 2.94c0.01,0.02 0.23,0.24 0.25,0.25l0.25 -0.25 -0.25 -0.25c-0.02,0.01 -0.24,0.23 -0.25,0.25z"/>
   </g>
  </g>
 </g>
</svg>
