<?xml version="1.0" encoding="UTF-8"?>
<!DOCTYPE svg PUBLIC "-//W3C//DTD SVG 1.1//EN" "http://www.w3.org/Graphics/SVG/1.1/DTD/svg11.dtd">
<!-- Creator: CorelDRAW -->
<svg xmlns="http://www.w3.org/2000/svg" xml:space="preserve" width="0.666665in" height="0.662709in" version="1.1" style="shape-rendering:geometricPrecision; text-rendering:geometricPrecision; image-rendering:optimizeQuality; fill-rule:evenodd; clip-rule:evenodd"
viewBox="0 0 71.17 70.74"
 xmlns:xlink="http://www.w3.org/1999/xlink"
 xmlns:xodm="http://www.corel.com/coreldraw/odm/2003">
 <defs>
  <style type="text/css">
   <![CDATA[
    .fil0 {fill:url(#id0)}
   ]]>
  </style>
  <linearGradient id="id0" gradientUnits="userSpaceOnUse" x1="0" y1="35.37" x2="71.17" y2="35.37">
   <stop offset="0" style="stop-opacity:1; stop-color:#F00006"/>
   <stop offset="1" style="stop-opacity:1; stop-color:#891114"/>
  </linearGradient>
 </defs>
 <g id="Layer_x0020_1">
  <metadata id="CorelCorpID_0Corel-Layer"/>
  <path class="fil0" d="M70.79 0.19l-34.9 -0.19c-32.35,0.32 -47.64,38.1 -25.39,60.5 21.3,21.44 60.03,7.35 60.37,-24.86 0.11,-10.92 0.66,-24.81 -0.08,-35.45zm-15.42 33.15l0 21.15c-2.92,1.47 -5.77,2.56 -8.53,3.3 -2.78,0.75 -5.46,1.12 -8.06,1.12 -6.63,0 -12.12,-2.18 -16.49,-6.56 -4.37,-4.37 -6.56,-9.9 -6.56,-16.55 0,-6.73 2.22,-12.29 6.65,-16.69 4.44,-4.4 12.05,-7.28 18.84,-7.28 2.56,0 5,0.35 7.32,1.06 2.31,0.7 4.55,1.76 6.69,3.18l0.22 10.89c-2.02,-2.04 -5.37,-3.53 -7.36,-4.48 -2.01,-0.95 -4.11,-1.42 -6.31,-1.42 -3.9,0 -9.14,1.97 -11.7,4.58 -2.56,2.61 -3.84,5.88 -3.84,9.79 0,4.13 1.24,7.49 3.71,10.1 2.47,2.61 5.65,3.91 9.55,3.91 0.9,0 1.81,-0.08 2.74,-0.24 0.92,-0.16 1.87,-0.39 2.88,-0.7l0 -6.32 -8.24 0 0 -8.85 18.5 0z"/>
 </g>
</svg>
